<svg xmlns="http://www.w3.org/2000/svg" xmlns:xlink="http://www.w3.org/1999/xlink" width="1366" height="306" viewBox="0 0 1366 306">
  <defs>
    <clipPath id="clip-Artboard_1">
      <rect width="1366" height="306"/>
    </clipPath>
  </defs>
  <g id="Artboard_1" data-name="Artboard 1" clip-path="url(#clip-Artboard_1)">
    <g id="Group_6" data-name="Group 6" transform="translate(-139.795 -131)">
      <g id="Group_1" data-name="Group 1" transform="translate(499.15 134.879)">
        <path id="Path_1" data-name="Path 1" d="M498.63,181.651c37.374,0,63.268,22.425,63.268,60.6v26.426c0,36.307-23.759,59-57.928,59a69.361,69.361,0,0,1-24.559-4.54v46.984c0,3.2-1.6,4.805-4.538,4.805h-31.5q-4.8,0-4.8-4.805V196.868c0-2.67,1.066-4.271,3.47-5.073C458.32,185.655,480.478,181.651,498.63,181.651Zm21.891,87.827v-28.03c0-16.551-8.275-23.491-22.692-23.491a55.532,55.532,0,0,0-18.418,2.936V287.63a37.243,37.243,0,0,0,18.686,4.537C512.513,292.167,520.521,284.96,520.521,269.478Z" transform="translate(-438.568 -121.32)" fill="#fff"/>
        <path id="Path_2" data-name="Path 2" d="M571.749,179.293c-13.082,0-22.691-9.876-22.691-22.424,0-13.08,9.608-22.424,22.691-22.424,13.348,0,22.424,9.344,22.424,22.424C594.172,169.418,585.1,179.293,571.749,179.293ZM556,337.327c-2.937,0-4.805-1.6-4.805-4.805V203.052c0-2.936,1.868-4.537,4.805-4.537h31.5c2.937,0,4.538,1.6,4.538,4.537v129.47c0,3.2-1.6,4.805-4.538,4.805Z" transform="translate(-407.845 -134.446)" fill="#fff"/>
        <path id="Path_3" data-name="Path 3" d="M659.8,297.548c2.4,0,5.606-.267,8.543-.535,3.47-.533,5.073.8,5.073,4.005v26.161c0,2.669-1.068,4.806-3.737,5.338a99.9,99.9,0,0,1-16.818,1.336c-30.966,0-51.79-16.818-51.79-50.988V163c0-2.937,1.6-4.538,4.806-4.538h27.762c2.937,0,4.538,1.336,4.805,4.273l3.2,32.033h24.026c2.937,0,4.805,1.6,4.805,4.537v25.628c0,2.937-1.868,4.538-4.805,4.538H641.909v48.318C641.909,290.874,648.05,297.548,659.8,297.548Z" transform="translate(-393.384 -127.767)" fill="#fff"/>
        <path id="Path_4" data-name="Path 4" d="M729.083,327.673c-40.311,0-63.268-22.424-63.268-58.2V239.312c0-35.236,23.226-57.661,63-57.661A83.2,83.2,0,0,1,772.594,194.2c2.4,1.6,2.937,4,1.335,6.674l-14.148,21.355c-1.6,2.67-3.737,2.937-6.674,1.6a47.936,47.936,0,0,0-22.424-6.14c-14.684,0-23.492,8.01-23.492,21.623v30.166c0,14.949,9.344,22.156,23.225,22.156a47.223,47.223,0,0,0,25.628-7.742c2.669-1.6,5.073-1.066,6.674,1.336l14.414,21.356c1.6,2.4,1.335,4.806-.8,6.406C762.719,322.6,747.5,327.673,729.083,327.673Z" transform="translate(-375.38 -121.32)" fill="#fff"/>
        <path id="Path_5" data-name="Path 5" d="M831.578,192.163c33.1,0,55.261,21.622,55.261,61.665v76.08q0,4.806-4.806,4.806h-31.5q-4.806,0-4.806-4.806v-76.08c0-18.152-6.941-25.628-22.69-25.628a52.64,52.64,0,0,0-18.419,3.471v98.237c0,3.2-1.6,4.806-4.537,4.806h-31.5q-4.8,0-4.806-4.806V148.65q0-4.806,4.806-4.805h31.5c2.936,0,4.537,1.6,4.537,4.805v47.784C811.826,193.765,820.367,192.163,831.578,192.163Z" transform="translate(-348.142 -131.833)" fill="#fff"/>
        <path id="Path_6" data-name="Path 6" d="M962.912,334.714c-2.4,0-4.537-.8-5.605-3.2L926.075,283.46l-7.477,8.01v38.439c0,3.2-1.868,4.806-4.805,4.806H882.827q-4.8,0-4.806-4.806V148.65q0-4.806,4.806-4.805h30.966c2.937,0,4.805,1.6,4.805,4.805v94.233l33.9-44.046a6.038,6.038,0,0,1,5.605-2.936h37.106c3.737,0,5.073,2.4,2.4,5.6L952.5,254.362l50.988,74.746c2.134,3.2.8,5.606-2.937,5.606Z" transform="translate(-316.375 -131.833)" fill="#fff"/>
        <path id="Path_7" data-name="Path 7" d="M1041.756,181.651c36.838,0,58.461,19.221,58.461,59.8v73.143a5.168,5.168,0,0,1-4,5.34c-15.752,4.805-36.84,7.742-54.993,7.742-38.44,0-62.732-14.415-62.732-45.917,0-27.762,21.888-41.643,58.2-41.643a188.791,188.791,0,0,1,22.691,1.6v-2.67c0-14.148-5.073-21.889-22.424-21.889-11.747,0-25.628,3.2-33.37,7.475-2.4,1.334-5.071,1.067-6.406-1.6l-10.945-20.822c-1.336-2.67-1.336-4.538.534-5.873C999.31,188.325,1018.8,181.651,1041.756,181.651Zm-.535,112.92a91.5,91.5,0,0,0,18.154-2.137V268.944a102.77,102.77,0,0,0-18.421-1.6c-14.681,0-21.088,4.8-21.088,13.348C1019.865,290.033,1028.408,294.571,1041.22,294.571Z" transform="translate(-288.439 -121.32)" fill="#fff"/>
        <path id="Path_8" data-name="Path 8" d="M1095.873,324.2q-4.807,0-4.805-4.806V198.2a6.043,6.043,0,0,1,3.469-5.606,112.261,112.261,0,0,1,49.12-10.945c8.008,0,16.282,1.067,25.893,2.669,2.937.534,4.273,2.137,4.273,5.073v24.559c0,3.2-1.869,4.806-5.073,4.271a115,115,0,0,0-16.552-1.067c-8.009,0-15.215,1.334-20.288,3.47V319.4c0,3.2-1.6,4.806-4.538,4.806Z" transform="translate(-257.136 -121.32)" fill="#fff"/>
        <path id="Path_9" data-name="Path 9" d="M1228.329,297.548c2.4,0,5.605-.267,8.542-.535,3.47-.533,5.073.8,5.073,4.005v26.161c0,2.669-1.068,4.806-3.737,5.338a99.905,99.905,0,0,1-16.818,1.336c-30.966,0-51.79-16.818-51.79-50.988V163c0-2.937,1.6-4.538,4.806-4.538h27.762c2.937,0,4.538,1.336,4.806,4.273l3.2,32.033H1234.2c2.937,0,4.806,1.6,4.806,4.537v25.628c0,2.937-1.869,4.538-4.806,4.538h-23.759v48.318C1210.443,290.874,1216.584,297.548,1228.329,297.548Z" transform="translate(-235.299 -127.767)" fill="#fff"/>
      </g>
      <g id="Group_5" data-name="Group 5" transform="translate(139.795 132.762)">
        <path id="Path_10" data-name="Path 10" d="M140.082,186.212l45.345,158.993a7.207,7.207,0,0,0,6.925,5.212h19.987a7.209,7.209,0,0,0,6.928-9.2l-12.942-46.432a3.69,3.69,0,0,1,3.546-4.713H323.058l-.048.168h22.006a7.209,7.209,0,0,0,6.933-5.236l21.864-98.817a7.208,7.208,0,0,0-6.933-9.181H147.008A7.208,7.208,0,0,0,140.082,186.212ZM194.649,255.8l-13.015-44.672a3.077,3.077,0,0,1,2.957-3.929H331.253a3.86,3.86,0,0,1,3.712,4.916l-8.622,42a7.945,7.945,0,0,1-7.642,5.77H200.074A5.645,5.645,0,0,1,194.649,255.8Z" transform="translate(-139.795 -121.375)" fill="#fff"/>
        <g id="Group_2" data-name="Group 2" transform="translate(101.669)">
          <path id="Path_11" data-name="Path 11" d="M478.136,139.307a5.123,5.123,0,0,0-4.921-6.545H405.589a10.478,10.478,0,0,0-10.221,8.169L355.242,318.42A12.3,12.3,0,0,1,343.251,328H225.01a4.354,4.354,0,0,0-4.182,5.561l6.425,22.245a8.3,8.3,0,0,0,7.97,6H368.061A13.065,13.065,0,0,0,380.8,351.619L422.044,169.2a7.758,7.758,0,0,1,7.567-6.047h35.642a7.971,7.971,0,0,0,7.659-5.76Z" transform="translate(-220.655 -132.762)" fill="#fff"/>
        </g>
        <g id="Group_3" data-name="Group 3" transform="translate(78.142 255.178)">
          <circle id="Ellipse_1" data-name="Ellipse 1" cx="23.592" cy="23.592" r="23.592" fill="#fff"/>
        </g>
        <g id="Group_4" data-name="Group 4" transform="translate(174.491 255.178)">
          <circle id="Ellipse_2" data-name="Ellipse 2" cx="23.592" cy="23.592" r="23.592" fill="#fff"/>
        </g>
      </g>
    </g>
  </g>
</svg>
